<?xml version="1.0" encoding="UTF-8"?>
<svg id="Layer_1" xmlns="http://www.w3.org/2000/svg" version="1.1" viewBox="0 0 500 500">
  <!-- Generator: Adobe Illustrator 29.6.1, SVG Export Plug-In . SVG Version: 2.1.1 Build 9)  -->
  <defs>
    <style>
      .st0 {
        fill: #38220f;
      }
    </style>
  </defs>
  <path class="st0" d="M149.4,183.2c11.3,0,21,7.3,24.4,17.5h65.4c.2-.9,0-1.9-.3-2.8-3.1-6.7-6.3-13.6-9.8-20.4-1-2-3.2-3-5.3-2.5l-29.4,6.8c-7.7,1.8-16.9-2.2-20.5-9-3.6-6.7-.2-13.7,7.5-15.5l27.1-6.3c3-.7,4.6-4.1,3-6.9-3.9-6.9-7.8-13.6-11.7-20-1.1-1.7-3.1-2.6-5.1-2.1l-28.6,6.6c-7.7,1.8-16.9-2.2-20.5-9-3.6-6.8-.2-13.7,7.5-15.5l22.7-5.3c3.2-.8,4.7-4.5,2.8-7.3-4.8-6.9-9.7-13.4-14.4-19.5-1.1-1.4-3-2.1-4.8-1.7l-21.6,5c-7.8,1.8-16.9-2.2-20.5-9-3.6-6.8-.2-13.7,7.5-15.5l9.5-2.2c3.6-.8,4.8-5.4,2.1-8-17.6-16.8-32.4-24.4-41.4-19.6-20.5,10.9-4.5,81.5,35.4,162h19Z"/>
  <path class="st0" d="M302.4,166.8c1.9,1.3,2.6,3.7,1.8,5.7l-11.6,28.1h31.4l7-17.1c.9-2.1,3.1-3.2,5.3-2.8,10.5,1.9,20.7,1.8,29.9-.3,20-4.4,34.8-21.5,36.8-41.9l.9-8.8,6.9-69.2c.2-2-1-4-2.9-4.8l-68.4-28.2c-1.9-.8-4.1-.2-5.4,1.4l-43.8,53.9-5.6,6.9c-12.9,15.9-14.5,38.4-3.4,55.7,5.1,7.9,12.3,15.2,21.1,21.3ZM330.4,66.9l10.1-12.4c1.3-1.6,3.5-2.2,5.4-1.4l39.5,16.3c1.9.8,3.1,2.7,2.9,4.8l-3.6,36.4c-.3,3.3-3.8,5.2-6.7,3.8-9.6-4.7-20.7-11.7-24.8-20.6-4.3-9.3-13.1-15.7-21.2-19.8-2.6-1.4-3.3-4.8-1.5-7.1Z"/>
  <path class="st0" d="M174.9,458.5c0,2.3,2.1,4.2,4.7,4.2h140.7c2.6,0,4.7-1.9,4.7-4.2v-50.2c0-2.3-2.1-4.2-4.7-4.2h-140.7c-2.6,0-4.7,1.9-4.7,4.2v50.2Z"/>
  <path class="st0" d="M174.9,367.3c0,2.3,2.1,4.2,4.7,4.2h140.7c2.6,0,4.7-1.9,4.7-4.2v-50.2c0-2.3-2.1-4.2-4.7-4.2h-140.7c-2.6,0-4.7,1.9-4.7,4.2v50.2Z"/>
  <path class="st0" d="M45.4,371.6h18.3c2.6,0,4.7-1.9,4.7-4.2v-50.2c0-2.3-2.1-4.2-4.7-4.2h-18.3c-2.6,0-4.7,1.9-4.7,4.2v50.2c0,2.3,2.1,4.2,4.7,4.2Z"/>
  <path class="st0" d="M45.4,462.7h18.3c2.6,0,4.7-1.9,4.7-4.2v-50.2c0-2.3-2.1-4.2-4.7-4.2h-18.3c-2.6,0-4.7,1.9-4.7,4.2v50.2c0,2.3,2.1,4.2,4.7,4.2Z"/>
  <path class="st0" d="M45.4,280.5h18.3c2.6,0,4.7-1.9,4.7-4.2v-50.2c0-2.3-2.1-4.2-4.7-4.2h-18.3c-2.6,0-4.7,1.9-4.7,4.2v50.2c0,2.3,2.1,4.2,4.7,4.2Z"/>
  <path class="st0" d="M179.6,280.5h140.7c2.6,0,4.7-1.9,4.7-4.2v-50.2c0-2.3-2.1-4.2-4.7-4.2h-140.7c-2.6,0-4.7,1.9-4.7,4.2v50.2c0,2.3,2.1,4.2,4.7,4.2Z"/>
  <path class="st0" d="M93.9,204.3c-2.6,0-4.7,2-4.7,4.4v267.1c0,2.4,2.1,4.4,4.7,4.4h55.5c2.6,0,4.7-2,4.7-4.4V208.7c0-2.4-2.1-4.4-4.7-4.4h-55.5ZM121.6,453.7c-6.6,0-11.9-5.3-11.9-11.9s5.3-11.9,11.9-11.9,11.9,5.3,11.9,11.9-5.3,11.9-11.9,11.9ZM121.6,354.2c-6.6,0-11.9-5.3-11.9-11.9s5.3-11.9,11.9-11.9,11.9,5.3,11.9,11.9-5.3,11.9-11.9,11.9ZM121.6,254.7c-6.6,0-11.9-5.3-11.9-11.9s5.3-11.9,11.9-11.9,11.9,5.3,11.9,11.9-5.3,11.9-11.9,11.9Z"/>
  <path class="st0" d="M410.8,475.8V208.7c0-2.4-2.1-4.4-4.7-4.4h-55.5c-2.6,0-4.7,2-4.7,4.4v267.1c0,2.4,2.1,4.4,4.7,4.4h55.5c2.6,0,4.7-2,4.7-4.4ZM378.4,453.7c-6.6,0-11.9-5.3-11.9-11.9s5.3-11.9,11.9-11.9,11.9,5.3,11.9,11.9-5.3,11.9-11.9,11.9ZM378.4,354.2c-6.6,0-11.9-5.3-11.9-11.9s5.3-11.9,11.9-11.9,11.9,5.3,11.9,11.9-5.3,11.9-11.9,11.9ZM378.4,254.7c-6.6,0-11.9-5.3-11.9-11.9s5.3-11.9,11.9-11.9,11.9,5.3,11.9,11.9-5.3,11.9-11.9,11.9Z"/>
  <path class="st0" d="M436.4,462.7h18.3c2.6,0,4.7-1.9,4.7-4.2v-50.2c0-2.3-2.1-4.2-4.7-4.2h-18.3c-2.6,0-4.7,1.9-4.7,4.2v50.2c0,2.3,2.1,4.2,4.7,4.2Z"/>
  <path class="st0" d="M436.4,371.6h18.3c2.6,0,4.7-1.9,4.7-4.2v-50.2c0-2.3-2.1-4.2-4.7-4.2h-18.3c-2.6,0-4.7,1.9-4.7,4.2v50.2c0,2.3,2.1,4.2,4.7,4.2Z"/>
  <path class="st0" d="M436.4,280.5h18.3c2.6,0,4.7-1.9,4.7-4.2v-50.2c0-2.3-2.1-4.2-4.7-4.2h-18.3c-2.6,0-4.7,1.9-4.7,4.2v50.2c0,2.3,2.1,4.2,4.7,4.2Z"/>
</svg>