<?xml version="1.0" encoding="UTF-8"?>
<svg id="a" xmlns="http://www.w3.org/2000/svg" version="1.1" viewBox="0 0 430 146">
  <!-- Generator: Adobe Illustrator 29.6.1, SVG Export Plug-In . SVG Version: 2.1.1 Build 9)  -->
  <path d="M88,70.5V20.4c0-10.6,9.9-7.1,9.9-13.4s-1.4-3.7-4.6-3.7-8.3.5-15.6.5-12.5-.5-16.5-.5-4.8,1.9-4.8,3.7c0,6.6,11.2,2.8,11.1,13.4v26.4c0,0,0,21,0,21,0,19.5-3.7,31.3-12.8,37-4.7,2.9-10.8,4.3-18.5,4.3s-4.7-.2-6.8-.6c-11.9-2.2-19.1-10.3-19.1-19.8s5.2-13.9,12.6-13.9,6.6,1.1,8.1,3.3c.9,1.3,1.4,3,1.7,5,1,5.8,3.4,10.1,8.6,10.8.4,0,.9,0,1.4,0,5.7,0,9.8-4.6,9.8-10.2,0-11.2-11.1-19.1-25.9-19.1-15.3,0-26.5,9.7-26.5,24s10.8,28.2,36.1,28.2,10.9-.5,16.1-1.7c19.1-4.4,34.7-17.6,35.7-44.7Z"/>
  <path d="M136.8,116.1c25.3,0,44.4-17.6,44.4-41.8s-16.6-40.5-42.1-40.5-44.5,17.9-44.5,41.9,16.6,40.4,42.2,40.4ZM138.7,43.8c15.6,0,25.9,19,25.9,36.4s-7.7,25.9-20.8,25.9-25.9-19-25.9-36.2,7.7-26,20.8-26Z"/>
  <path d="M355,39.8c0-2.3-1.8-3.5-4.3-3.5-3.5,0-7.4.5-11.6.5s-8-.5-11.2-.5-4.8,1.2-4.8,3.7c0,5.4,8.6,4,8.6,10.2s-.9,5.1-2.6,9.6l-11.8,28.9c-.9,2.3-4.2,2.3-5.1,0l-12.6-28.9c-1.7-4.2-2.5-7.2-2.5-9.1,0-7.1,8.3-5.2,8.3-10.6s-1.8-3.7-4.9-3.7-8.3.5-15.1.5-12-.5-16-.5-4.3,1.2-4.3,3.5c0,5.1,7.2,3.5,12.3,14.3l27.7,59.6-.3.6c-3.7,9.1-8,14.9-13.2,14.9s-8.2-3.4-13.4-10.9c-1.4-2-2.5-2.8-4.2-2.8s-3.7,2.2-3.7,4.9c0,4.9,2.9,15.4,5.5,18.6,1.5,2.2,6.3,3.5,11.6,3.5,12.3,0,21.6-8.8,28-24.2l27.4-64.6c4.5-10.6,12.2-9.1,12.2-14.2h0Z"/>
  <path d="M369.8,115.8c3.5,0,3.9-4,7.4-4s9.4,3.1,20,3.1c18.6,0,32.7-9.1,32.7-24.2s-16.2-21.9-33-25.7c-13.9-3.5-21.4-5.1-21.4-12s4.5-8.6,11.7-8.6,20.5,6,28.7,13.2c1.8,1.5,3.5,3.2,5.4,3.2s3.2-1.4,3.2-3.5-1.7-5.2-3.5-8.3l-5.4-8.6c-2-2.9-3.5-5.5-6.5-5.5s-3.2,3.1-6,3.1-9.4-2.8-18.2-2.8c-16.2,0-27.7,9.6-27.7,22.3s16.9,21.3,32.7,24.8c13.1,3.1,21.9,4.6,21.9,12.5s-5.5,10.8-14.8,10.8-23.1-7.4-32.7-16.8c-2-1.8-3.7-3.2-5.4-3.2s-3.5,1.4-3.5,3.9,1.5,4.9,4,10.2l4.9,10.5c1.2,2.6,2.6,5.9,5.5,5.9h0Z"/>
  <path d="M228.4,116.1c16,0,29.7-8.3,35.1-16.3,1.1-1.5,1.5-2.8,1.5-3.9,0-1.8-1.4-3.9-3.5-3.9s-2.5.8-4.5,2.6c-5.4,5.1-12.5,8.6-20.8,8.6s-19.6-6.7-24.6-16.2c-.8-1.6,0-3.5,1.7-4l44.8-13.5c2.6-.8,3.9-1.7,3.9-5.5,0-15.1-13.1-30.2-33.4-30.2s-40.4,16.6-40.4,41.6,17.7,40.7,40.2,40.7h0ZM228.1,44.1c9.7,0,16.5,9.1,16.5,16.5s-.9,3.7-3.5,4.5l-28,8.8c-1.7.5-3.5-.7-3.6-2.5,0-1,0-2.1,0-3.1,0-14.8,8-24.2,18.8-24.2Z"/>
</svg>