<?xml version="1.0" encoding="UTF-8"?>
<svg id="a" xmlns="http://www.w3.org/2000/svg" version="1.1" viewBox="0 0 1127 146">
  <!-- Generator: Adobe Illustrator 29.6.1, SVG Export Plug-In . SVG Version: 2.1.1 Build 9)  -->
  <g>
    <path d="M92.2,73.6V23.5c0-10.6,9.9-7.1,9.9-13.4s-1.4-3.7-4.6-3.7-8.3.5-15.6.5-12.5-.5-16.5-.5-4.8,1.9-4.8,3.7c0,6.6,11.2,2.8,11.1,13.4v26.4c0,0,0,21,0,21,0,19.5-3.7,31.3-12.8,37-4.7,2.9-10.8,4.3-18.5,4.3s-4.7-.2-6.8-.6c-11.9-2.2-19.1-10.3-19.1-19.8s5.2-13.9,12.6-13.9,6.6,1.1,8.1,3.3c.9,1.3,1.4,3,1.7,5,1,5.8,3.4,10.1,8.6,10.8.4,0,.9,0,1.4,0,5.7,0,9.8-4.6,9.8-10.2,0-11.2-11.1-19.1-25.9-19.1s-26.5,9.7-26.5,23.9,10.8,28.2,36.1,28.2,10.9-.5,16.1-1.7c19.1-4.4,34.7-17.6,35.7-44.7h0Z"/>
    <path d="M141,119.2c25.3,0,44.4-17.6,44.4-41.8s-16.6-40.5-42.1-40.5-44.5,17.9-44.5,41.9,16.6,40.4,42.2,40.4h0ZM142.9,47c15.6,0,25.9,18.9,25.9,36.4s-7.7,25.9-20.8,25.9-25.9-19-25.9-36.2,7.7-26,20.8-26Z"/>
    <path d="M359.2,43c0-2.3-1.8-3.5-4.3-3.5-3.5,0-7.4.5-11.6.5s-8-.5-11.2-.5-4.8,1.2-4.8,3.7c0,5.4,8.6,4,8.6,10.2s-.9,5.1-2.6,9.6l-11.8,28.9c-.9,2.3-4.2,2.3-5.1,0l-12.6-28.9c-1.7-4.2-2.5-7.2-2.5-9.1,0-7.1,8.3-5.2,8.3-10.6s-1.8-3.7-4.9-3.7-8.3.5-15.1.5-12-.5-16-.5-4.3,1.2-4.3,3.5c0,5.1,7.2,3.5,12.3,14.3l27.7,59.6-.3.6c-3.7,9.1-8,14.9-13.2,14.9s-8.2-3.4-13.4-10.9c-1.4-2-2.5-2.8-4.2-2.8s-3.7,2.2-3.7,4.9c0,4.9,2.9,15.4,5.5,18.6,1.5,2.2,6.3,3.5,11.6,3.5,12.3,0,21.6-8.8,28-24.2l27.4-64.6c4.5-10.6,12.2-9.1,12.2-14.2h0Z"/>
    <path d="M374,118.9c3.5,0,3.9-4,7.4-4s9.4,3.1,20,3.1c18.6,0,32.7-9.1,32.7-24.2s-16.2-21.9-33-25.7c-13.9-3.5-21.4-5.1-21.4-12s4.5-8.6,11.7-8.6,20.5,6,28.7,13.2c1.8,1.5,3.5,3.2,5.4,3.2s3.2-1.4,3.2-3.5-1.7-5.2-3.5-8.3l-5.4-8.6c-2-2.9-3.5-5.5-6.5-5.5s-3.2,3.1-6,3.1-9.4-2.8-18.2-2.8c-16.2,0-27.7,9.6-27.7,22.3s16.9,21.3,32.7,24.8c13.1,3.1,21.9,4.6,21.9,12.5s-5.5,10.8-14.8,10.8-23.1-7.4-32.7-16.8c-2-1.8-3.7-3.2-5.4-3.2s-3.5,1.4-3.5,3.9,1.5,4.9,4,10.2l4.9,10.5c1.2,2.6,2.6,5.9,5.5,5.9h0Z"/>
    <path d="M232.5,119.2c16,0,29.7-8.3,35.1-16.3,1.1-1.5,1.5-2.8,1.5-3.9,0-1.8-1.4-3.9-3.5-3.9s-2.5.8-4.5,2.6c-5.4,5.1-12.5,8.6-20.8,8.6s-19.6-6.7-24.6-16.2c-.8-1.6,0-3.5,1.7-4l44.8-13.5c2.6-.8,3.9-1.7,3.9-5.5,0-15.1-13.1-30.2-33.4-30.2s-40.4,16.6-40.4,41.6,17.7,40.7,40.2,40.7h0ZM232.3,47.3c9.7,0,16.5,9.1,16.5,16.5s-.9,3.7-3.5,4.5l-28,8.8c-1.7.5-3.5-.7-3.6-2.5,0-1,0-2.1,0-3.1,0-14.8,8-24.2,18.8-24.2Z"/>
  </g>
  <g>
    <path d="M501.7,6c-8.2,0-18.6.9-25,.9s-11.2-.5-14.9-.5-4.9,1.8-4.9,3.7c0,6.3,9.9,2.8,9.9,13.4v76.1c0,10.6-9.9,7.1-9.9,13.4s1.2,3.7,4.6,3.7,8-.5,15.2-.5,13.9.5,18,.5,4.6-1.8,4.6-3.7c0-6.9-12.3-2.9-12.3-13.6v-16.2c0-3.6,1.1-2.2,14.3-2.2,36.4,0,50.2-15.6,50.2-37s-17.4-38.2-49.9-38.2ZM499.2,70.8c-8.2,0-12.2-1.5-12.2-6.3V24c0-2.9,0-7.5,12.9-7.5s29.1,9.2,29.1,27.7-8.8,26.7-29.9,26.7h0Z"/>
    <path d="M587.9,99v-53.9c0-3.9-1.1-6.3-4.2-6.3s-3.2.5-12.2,4.6c-9.6,4.3-12.8,6.3-12.8,9.1,0,6.5,10.6,1.7,10.6,11.4v35.1c0,11.9-9.4,8-9.4,14s1.2,3.7,4.3,3.7,7.7-.5,14.3-.5,10.9.5,14.5.5,4.3-2,4.3-3.7c0-6-9.6-2.2-9.6-14Z"/>
    <path d="M674.2,94.4c-1.2,0-2.1.7-3.6,2.1,0,0-.1.1-.2.2-4.9,5.5-11.5,9.3-19.8,9.3-14.8,0-27.7-13.4-27.7-33.7s7.5-26.2,18.3-26.2,14.2,10,16.2,20.3c.5,2.9,1.8,4.9,4.2,4.9s2.8-.8,4.8-2.6c6.2-6,8.2-10.9,8.2-14.3,0-7.1-13.6-17.3-30.4-17.3s-40.7,16.8-40.7,42.2,17.7,39.9,39.1,39.9,29.1-8.6,33.4-16.8c.8-1.5,1.4-3.1,1.4-4.3,0-2-1.2-3.7-3.2-3.7h0Z"/>
    <path d="M763.5,103.6l-23.8-36.6c-.8-1.2-.5-2.8.5-3.7l12.4-10.4c7.1-6,15.9-4.5,15.9-10s-1.8-3.5-4.3-3.5-10.9.5-15.1.5-9.6-.5-12.6-.5-4.9,1.2-4.9,3.7c0,4.9,6.6,3.2,6.6,7.1s-1.5,3.4-4,5.5l-19.9,17.4c-1.8,1.6-4.6.3-4.6-2.1V6.8c0-4.7-4.8-8-9.2-6.2-1.7.7-4,1.7-7.2,3.2-9.4,4.5-12.8,6.3-12.8,9.2,0,6.5,10.6,1.7,10.6,11.2v74.7c0,11.9-9.4,8-9.4,14s1.2,3.7,4.5,3.7,7.5-.5,14.2-.5,10.9.5,14.5.5,4.3-2,4.3-3.7c0-6-9.6-2.2-9.6-14v-8.9c0-.8.4-1.6,1-2.1l12.1-10.1c1.3-1.1,3.3-.8,4.2.7l12.6,20.2c1.5,2.3,2.3,4,2.3,5.4,0,5.7-7.2,3.7-7.2,8.8s1.8,3.7,5.1,3.7,7.7-.5,14.3-.5,11.9.5,15.9.5,4.2-1.2,4.2-3.4c0-4.9-6.6-3.4-10.6-9.7h0Z"/>
    <path d="M863.2,97.3l-4-28.8c-1.8-14.5-7.7-30.4-24.8-30.4s-15.4,3.7-20.3,8.9c-1.7,1.8-4.8.6-4.8-1.9,0-3.9-1.1-6.3-4.2-6.3s-3.2.5-12.2,4.6c-9.6,4.3-12.8,6.3-12.8,9.1,0,6.5,10.6,1.7,10.6,11.4v35.1c0,11.9-9.4,8-9.4,14s1.2,3.7,4.3,3.7,7.7-.5,14.3-.5,10.9.5,14.5.5,4.3-2,4.3-3.7c0-6-9.6-2.2-9.6-14v-24.3c0-15.6,8.8-21.9,16.8-21.9s13.6,10.5,14.9,19.7l3.2,23c.3,2.3.6,4.5.6,5.9,0,8.9-9.7,6-9.7,11.6s1.7,3.9,5.1,3.9,7.1-.5,14.5-.5,10.3.5,14.3.5,4.8-1.4,4.8-3.7c0-6.2-8.8-1.5-10.6-15.7h0Z"/>
    <path d="M909,99v-53.9c0-3.9-1.1-6.3-4.2-6.3s-3.2.5-12.2,4.6c-9.6,4.3-12.8,6.3-12.8,9.1,0,6.5,10.6,1.7,10.6,11.4v35.1c0,11.9-9.4,8-9.4,14s1.2,3.7,4.3,3.7,7.7-.5,14.3-.5,10.9.5,14.5.5,4.3-2,4.3-3.7c0-6-9.6-2.2-9.6-14Z"/>
    <path d="M996,94.4c-1.2,0-2.1.7-3.6,2.1,0,0-.1.1-.2.2-4.9,5.5-11.5,9.3-19.8,9.3-14.8,0-27.7-13.4-27.7-33.7s7.5-26.2,18.3-26.2,14.2,10,16.2,20.3c.5,2.9,1.8,4.9,4.2,4.9s2.8-.8,4.8-2.6c6.2-6,8.2-10.9,8.2-14.3,0-7.1-13.6-17.3-30.4-17.3s-40.7,16.8-40.7,42.2,17.7,39.9,39.1,39.9,29.1-8.6,33.4-16.8c.8-1.5,1.4-3.1,1.4-4.3,0-2-1.2-3.7-3.2-3.7h0Z"/>
    <path d="M584.6,29.2l2.2-2.2c5.8-5.8,5.8-9.1,0-14.9l-2.2-2.2c-5.8-5.8-9.1-5.8-14.9,0l-2.2,2.2c-5.8,5.8-5.8,9.1,0,14.9l2.2,2.2c5.8,5.8,9.1,5.8,14.9,0h0Z"/>
    <path d="M905.7,10c-5.8-5.8-9.1-5.8-14.9,0l-2.2,2.2c-5.8,5.8-5.8,9.1,0,14.9l2.2,2.2c5.8,5.8,9.1,5.8,14.9,0l2.2-2.2c5.8-5.8,5.8-9.1,0-14.9l-2.2-2.2h0Z"/>
    <path d="M1115.3,105.6c-10,0-7.9,12.1-15.9,12.1s-3.7-.4-5.8-1.5c-3.7-1.9-8.1-6-13.6-14-5.3-7.7-11.7-19-19.4-35.3-.5-1.1-.2-2.5.7-3.3l12.6-10.6c7.1-6,15.9-4.5,15.9-10s-1.8-3.5-4.3-3.5-10.9.5-15.1.5-9.6-.5-12.6-.5-4.9,1.2-4.9,3.7c0,4.9,6.6,3.2,6.6,7.1s-1.5,3.4-4,5.5l-19.9,17.4c-1.8,1.6-4.6.3-4.6-2.1V6.8c0-4.7-4.8-8-9.2-6.2-1.7.7-4,1.7-7.2,3.2-9.4,4.5-12.8,6.3-12.8,9.3,0,6.5,10.6,1.7,10.6,11.2v74.7c0,11.9-9.4,8-9.4,14s1.2,3.7,4.5,3.7,7.5-.5,14.2-.5,10.9.5,14.5.5,4.3-2,4.3-3.7c0-6-9.6-2.2-9.6-14v-8.8c0-.8.4-1.6,1-2.2l11.6-9.6c1.4-1.1,3.4-.7,4.2.8,4.7,8.8,9.7,16.7,15,23.3,4.4,5.5,9,10.1,13.8,13.8,7.8,6,16.2,9.3,25.1,9.3s20.9-4.7,20.9-12.8-2.8-7.2-7.4-7.2h0Z"/>
  </g>
</svg>